<?xml version="1.0"?>
<svg width="40" height="40" xmlns="http://www.w3.org/2000/svg" xmlns:svg="http://www.w3.org/2000/svg">
 <defs>
  <filter color-interpolation-filters="sRGB" filterUnits="userSpaceOnUse" height="17.77" id="filter0_dddddd_2753_16477" width="21.25" x="6.33" y="12.85">
   <feFlood flood-opacity="0" result="BackgroundImageFix"/>
   <feColorMatrix in="SourceAlpha" result="hardAlpha" type="matrix" values="0 0 0 0 0 0 0 0 0 0 0 0 0 0 0 0 0 0 127 0"/>
   <feOffset dy="0.1"/>
   <feGaussianBlur stdDeviation="0.04"/>
   <feColorMatrix type="matrix" values="0 0 0 0 0.0509804 0 0 0 0 0.121569 0 0 0 0 0.396078 0 0 0 0.189957 0"/>
   <feBlend in2="BackgroundImageFix"/>
   <feColorMatrix in="SourceAlpha" result="hardAlpha" type="matrix" values="0 0 0 0 0 0 0 0 0 0 0 0 0 0 0 0 0 0 127 0"/>
   <feOffset dy="0.19"/>
   <feGaussianBlur stdDeviation="0.08"/>
   <feColorMatrix type="matrix" values="0 0 0 0 0.0509804 0 0 0 0 0.121569 0 0 0 0 0.396078 0 0 0 0.368551 0"/>
   <feBlend in2="effect1_dropShadow_2753_16477"/>
   <feColorMatrix in="SourceAlpha" result="hardAlpha" type="matrix" values="0 0 0 0 0 0 0 0 0 0 0 0 0 0 0 0 0 0 127 0"/>
   <feOffset dy="0.29"/>
   <feGaussianBlur stdDeviation="0.14"/>
   <feColorMatrix type="matrix" values="0 0 0 0 0.0509804 0 0 0 0 0.121569 0 0 0 0 0.396078 0 0 0 0.3 0"/>
   <feBlend in2="effect2_dropShadow_2753_16477"/>
   <feColorMatrix in="SourceAlpha" result="hardAlpha" type="matrix" values="0 0 0 0 0 0 0 0 0 0 0 0 0 0 0 0 0 0 127 0"/>
   <feOffset dy="0.43"/>
   <feGaussianBlur stdDeviation="0.43"/>
   <feColorMatrix type="matrix" values="0 0 0 0 0.0509804 0 0 0 0 0.121569 0 0 0 0 0.396078 0 0 0 0.3 0"/>
   <feBlend in2="effect3_dropShadow_2753_16477"/>
   <feColorMatrix in="SourceAlpha" result="hardAlpha" type="matrix" values="0 0 0 0 0 0 0 0 0 0 0 0 0 0 0 0 0 0 127 0"/>
   <feOffset dy="0.66"/>
   <feGaussianBlur stdDeviation="0.8"/>
   <feColorMatrix type="matrix" values="0 0 0 0 0.0509804 0 0 0 0 0.121569 0 0 0 0 0.396078 0 0 0 0.29 0"/>
   <feBlend in2="effect4_dropShadow_2753_16477"/>
   <feColorMatrix in="SourceAlpha" result="hardAlpha" type="matrix" values="0 0 0 0 0 0 0 0 0 0 0 0 0 0 0 0 0 0 127 0"/>
   <feOffset dy="1.76"/>
   <feGaussianBlur stdDeviation="1.41"/>
   <feColorMatrix type="matrix" values="0 0 0 0 0.0509804 0 0 0 0 0.121569 0 0 0 0 0.396078 0 0 0 0.45 0"/>
   <feBlend in2="effect5_dropShadow_2753_16477"/>
   <feBlend in="SourceGraphic" in2="effect6_dropShadow_2753_16477"/>
  </filter>
  <filter color-interpolation-filters="sRGB" filterUnits="userSpaceOnUse" height="17.57" id="filter1_dddddd_2753_16477" width="10.82" x="22.89" y="12.97">
   <feFlood flood-opacity="0" result="BackgroundImageFix"/>
   <feColorMatrix in="SourceAlpha" result="hardAlpha" type="matrix" values="0 0 0 0 0 0 0 0 0 0 0 0 0 0 0 0 0 0 127 0"/>
   <feOffset dy="0.1"/>
   <feGaussianBlur stdDeviation="0.04"/>
   <feColorMatrix type="matrix" values="0 0 0 0 0.0509804 0 0 0 0 0.121569 0 0 0 0 0.396078 0 0 0 0.189957 0"/>
   <feBlend in2="BackgroundImageFix"/>
   <feColorMatrix in="SourceAlpha" result="hardAlpha" type="matrix" values="0 0 0 0 0 0 0 0 0 0 0 0 0 0 0 0 0 0 127 0"/>
   <feOffset dy="0.19"/>
   <feGaussianBlur stdDeviation="0.08"/>
   <feColorMatrix type="matrix" values="0 0 0 0 0.0509804 0 0 0 0 0.121569 0 0 0 0 0.396078 0 0 0 0.368551 0"/>
   <feBlend in2="effect1_dropShadow_2753_16477"/>
   <feColorMatrix in="SourceAlpha" result="hardAlpha" type="matrix" values="0 0 0 0 0 0 0 0 0 0 0 0 0 0 0 0 0 0 127 0"/>
   <feOffset dy="0.29"/>
   <feGaussianBlur stdDeviation="0.14"/>
   <feColorMatrix type="matrix" values="0 0 0 0 0.0509804 0 0 0 0 0.121569 0 0 0 0 0.396078 0 0 0 0.3 0"/>
   <feBlend in2="effect2_dropShadow_2753_16477"/>
   <feColorMatrix in="SourceAlpha" result="hardAlpha" type="matrix" values="0 0 0 0 0 0 0 0 0 0 0 0 0 0 0 0 0 0 127 0"/>
   <feOffset dy="0.43"/>
   <feGaussianBlur stdDeviation="0.43"/>
   <feColorMatrix type="matrix" values="0 0 0 0 0.0509804 0 0 0 0 0.121569 0 0 0 0 0.396078 0 0 0 0.3 0"/>
   <feBlend in2="effect3_dropShadow_2753_16477"/>
   <feColorMatrix in="SourceAlpha" result="hardAlpha" type="matrix" values="0 0 0 0 0 0 0 0 0 0 0 0 0 0 0 0 0 0 127 0"/>
   <feOffset dy="0.66"/>
   <feGaussianBlur stdDeviation="0.8"/>
   <feColorMatrix type="matrix" values="0 0 0 0 0.0509804 0 0 0 0 0.121569 0 0 0 0 0.396078 0 0 0 0.29 0"/>
   <feBlend in2="effect4_dropShadow_2753_16477"/>
   <feColorMatrix in="SourceAlpha" result="hardAlpha" type="matrix" values="0 0 0 0 0 0 0 0 0 0 0 0 0 0 0 0 0 0 127 0"/>
   <feOffset dy="1.76"/>
   <feGaussianBlur stdDeviation="1.41"/>
   <feColorMatrix type="matrix" values="0 0 0 0 0.0509804 0 0 0 0 0.121569 0 0 0 0 0.396078 0 0 0 0.45 0"/>
   <feBlend in2="effect5_dropShadow_2753_16477"/>
   <feBlend in="SourceGraphic" in2="effect6_dropShadow_2753_16477"/>
  </filter>
  <linearGradient id="paint3_linear_2753_16477" x1="0.5" x2="0.5" y1="0" y2="1">
   <stop stop-color="white"/>
   <stop offset="1" stop-color="#C5D4F7"/>
  </linearGradient>
 </defs>
 <g class="layer">
  <title>Layer 1</title>
  <path d="m15.34,3.91c0.6,0.01 1.2,0.01 1.76,0.01l5.8,0c0.57,0 1.16,0 1.76,-0.01c1.61,-0.01 3.22,-0.02 4.31,0.05c3.96,0.26 6.7,2.66 7.05,6.74c0.08,1.47 0.08,3.23 0.08,5.32l0,0c0,0.36 0,0.72 0,1.1l0,5.79c0,0.38 0,0.75 0,1.1c0,2.09 0,3.86 -0.08,5.32c-0.35,4.09 -3.09,6.49 -7.05,6.74c-1.09,0.07 -2.7,0.06 -4.31,0.05c-0.6,-0.01 -1.19,-0.01 -1.76,-0.01l-5.8,0c-0.56,0 -1.16,0 -1.76,0.01c-1.6,0.01 -3.21,0.02 -4.3,-0.05c-3.97,-0.25 -6.7,-2.65 -7.05,-6.74c-0.09,-1.46 -0.09,-3.23 -0.08,-5.31l0,-0.01c0,-0.35 0,-0.72 0,-1.1l0,-5.79c0,-0.38 0,-0.74 0,-1.1l0,0c-0.01,-2.09 -0.01,-3.85 0.08,-5.32c0.35,-4.08 3.08,-6.48 7.05,-6.74c1.09,-0.07 2.7,-0.06 4.3,-0.05z" fill="#3ad305" id="svg_1" transform="matrix(1 0 0 1 0 0)"/>
  <g filter="url(#filter0_dddddd_2753_16477)" id="svg_2" transform="matrix(1 0 0 1 0 0)">
   <path d="m9.14,15.39c0,-0.82 0.67,-1.48 1.49,-1.48l10.39,0c2.07,0 3.75,1.68 3.75,3.75l0,6.91c0,0.82 -0.67,1.48 -1.49,1.48l-10.39,0c-2.07,0 -3.75,-1.67 -3.75,-3.75l0,-6.91z" fill="#000000" id="svg_3" stroke="#00ff00"/>
   <path d="m9.32,15.39c0,-0.72 0.58,-1.31 1.31,-1.31l10.39,0c1.97,0 3.57,1.6 3.57,3.58l0,6.91c0,0.72 -0.59,1.31 -1.31,1.31l-10.39,0c-1.97,0 -3.57,-1.6 -3.57,-3.58l0,-6.91z" fill="#000000" id="svg_4" stroke="#00ff00" stroke-width="0.35"/>
  </g>
  <g filter="url(#filter1_dddddd_2753_16477)" id="svg_5">
   <path d="m25.7,18.21c0,-0.51 0.22,-0.99 0.6,-1.32l2.98,-2.62c0.63,-0.56 1.62,-0.11 1.62,0.73l0,9.99c0,0.83 -0.98,1.28 -1.61,0.74l-2.73,-2.32c-0.54,-0.46 -0.86,-1.13 -0.86,-1.84l0,-3.36z" fill="url(#paint3_linear_2753_16477)" id="svg_6" stroke="#00ff00"/>
   <path d="m25.88,18.21c0,-0.46 0.19,-0.89 0.54,-1.19l2.97,-2.62c0.52,-0.45 1.33,-0.09 1.33,0.6l0,9.99c0,0.68 -0.8,1.05 -1.32,0.61l-2.73,-2.32c-0.5,-0.43 -0.79,-1.06 -0.79,-1.71l0,-3.36z" id="svg_7" stroke="#00ff00" stroke-width="0.35"/>
  </g>
 </g>
</svg>